<svg width="633" height="689" viewBox="0 0 633 689" fill="none" xmlns="http://www.w3.org/2000/svg">
<path d="M316.347 0.00171916C141.907 0.00171916 0 141.922 0 316.348C0 490.788 141.907 632.695 316.347 632.695C328.841 632.695 341.144 631.888 353.264 630.471L361.415 638.607C361.415 638.607 361.415 638.617 361.431 638.617L361.54 638.752C365.983 643.164 372.467 644.653 377.879 641.982L422.436 620.012L415.717 688.315C415.717 688.315 424.071 684.195 428.858 681.825C433.66 679.466 434.452 675.617 434.452 675.617L461.009 601.008L503.326 580.153C508.623 577.544 511.368 571.71 510.753 565.653C510.55 563.695 509.998 561.721 509.066 559.82C508.722 559.111 508.28 558.492 507.863 557.861C507.681 557.585 507.535 557.273 507.337 557.007L466.779 577.002C465.316 577.715 463.571 577.122 462.858 575.663C462.134 574.21 462.722 572.455 464.186 571.741L502.644 552.793C498.597 550.366 493.691 549.908 489.457 552.002L368.769 611.491L346.909 597.412C346.909 597.412 344.789 596.589 341.721 598.105C338.649 599.605 327.748 604.991 327.748 604.991L346.071 623.283C336.284 624.225 326.399 624.845 316.368 624.845C259.748 624.845 206.68 609.438 161.008 582.709C161.352 582.303 161.591 581.933 162.071 581.459C166.498 577.042 167.586 572.626 167.586 572.626V564.902L166.487 556.068L163.17 550.553L162.06 536.198H158.753L157.643 528.474H163.159L174.201 517.433V511.917L173.091 505.292H169.774L170.883 487.625L179.102 472.167C179.102 472.167 177.508 464.443 178.607 456.708C179.706 448.973 178.607 445.666 178.607 445.666L173.091 443.458C167.565 441.255 165.367 436.833 162.05 434.625C158.742 432.422 155.425 425.797 155.425 425.797C155.425 425.797 147.701 419.161 141.07 416.963C134.445 414.755 141.07 416.963 136.643 415.854C132.226 414.744 118.976 409.229 116.774 405.911C114.565 402.593 102.414 397.078 99.1069 393.771C95.7892 390.453 93.5288 388.245 93.5288 388.245L92.7111 382.729C92.7111 382.729 94.6851 377.213 92.4819 372.786C90.2736 368.37 93.5913 367.271 92.4819 363.953C91.3725 360.646 92.4819 357.328 92.4819 357.328L86.9559 348.495L84.7528 344.078C82.5446 339.651 82.5446 336.354 78.1278 333.036C73.7007 329.719 70.3934 321.995 64.8674 320.271C59.3518 318.541 51.6174 302.115 51.6174 302.115C51.6174 302.115 49.4091 294.391 41.6747 287.76C33.9507 281.125 33.9507 287.76 28.4247 294.385C22.8987 301.01 22.8987 294.385 22.8987 294.385C22.8987 294.385 19.3466 303.369 16.2736 302.109C13.4299 300.948 10.8414 299.885 8.35696 298.88C8.83614 290.385 9.69549 282 10.8414 273.697H12.6591L18.555 268.786V263.874L25.9247 258.963V253.067H33.2944V248.155L33.31 244.098V238.228L29.3778 233.395V216.698H24.4663V216.656C26.633 210.307 28.9611 204.031 31.534 197.88C32.5028 198.146 33.1382 198.51 33.31 199.01C33.31 199.01 104.045 122.38 155.133 116.484L167.904 82.0983C167.904 82.0983 167.904 89.9576 172.815 82.0983C177.726 74.2389 167.904 84.0619 177.726 74.2389C187.549 64.416 187.549 62.4472 193.445 59.5043C199.341 56.5564 202.289 54.5928 205.237 52.6293C208.185 50.6659 218.992 44.77 218.992 44.77H223.903L218.007 51.6449L212.111 57.5408L205.236 63.4367L200.325 66.3845L197.377 73.2595L200.325 80.1344C200.325 80.1344 202.288 80.1344 209.169 79.15C216.044 78.1657 225.871 78.1657 223.903 75.2178C221.94 72.2699 227.836 68.3428 230.778 66.374L233.726 64.4104L241.585 60.4782L253.377 54.5823L262.221 44.7594H267.132L273.028 33.952V20.1974L268.117 15.2859C268.117 15.2859 271.424 20.2703 260.263 13.0619C278.456 9.69736 297.18 7.85883 316.336 7.85883C324.18 7.85883 331.92 8.24946 339.623 8.83279C338.544 14.4213 338.315 18.364 339.534 19.6245C343.284 23.4995 343.284 23.4995 343.284 23.4995L347.977 32.2235L355.466 34.1505L357.336 38.9995L352.654 45.7807L343.284 44.8067H337.664H324.555H316.8C316.8 44.8067 316.123 47.7234 312.373 50.6244C308.623 53.5307 307.69 49.8692 305.81 54.6088C303.94 59.3484 302.06 67.0984 302.06 67.0984L303.003 72.9058L309.56 76.786H316.789C319.862 76.786 330.164 77.7548 330.164 77.7548C332.961 71.937 327.357 62.2494 327.357 62.2494H321.737L326.419 54.6036H336.721L343.279 63.2181L345.148 70.9681V78.7181L341.398 85.4993L334.841 88.4004H325.482L316.789 93.2493L306.742 100.989L302.06 108.744C297.378 116.484 293.633 122.312 293.633 122.312L294.57 130.062L296.44 135.88C289.878 139.755 299.247 136.849 285.201 139.755L271.149 142.661C271.149 142.661 269.279 143.619 267.399 145.562C265.518 147.494 268.336 137.812 265.518 147.494C262.711 157.187 259.899 162.036 259.899 162.036L267.399 167.853C267.399 167.853 260.836 172.697 267.399 173.661C273.956 174.63 264.591 173.661 273.956 174.63C283.326 175.603 291.748 174.63 291.748 174.63L296.441 167.854L305.8 159.135L312.362 150.416L316.789 144.598L324.545 140.723C324.545 140.723 329.222 135.88 331.092 139.755C332.961 143.619 332.034 155.26 332.034 155.26L343.274 158.161H347.967C347.967 158.161 349.836 159.135 352.649 161.067C355.461 162.999 361.076 163.973 361.076 163.973L364.826 156.223L371.383 149.442C371.383 149.442 375.138 148.473 377.946 148.473C380.758 148.473 385.435 151.38 385.435 151.38L394.238 153.312H417.29L426.649 149.437L431.342 152.343C434.149 160.093 433.206 162.994 431.342 165.911C429.461 168.818 429.461 168.818 429.461 168.818C429.461 168.818 428.534 169.786 420.102 173.661C411.675 177.536 393.873 181.411 390.123 181.411H386.373C386.373 181.411 384.504 180.443 377.946 179.479C371.384 178.51 360.144 173.661 360.144 173.661L349.841 169.786H340.472C340.472 169.786 331.097 168.818 325.482 168.818C319.857 168.818 316.79 170.76 316.79 170.76L312.363 171.729L299.243 180.448L288.003 187.229L282.384 191.104L276.758 195.307L272.076 201.76L258.024 213.385C254.274 218.234 254.274 218.234 254.274 218.234L241.154 246.229V254.088L235.535 258.932V272.505C235.535 272.505 240.217 296.729 235.535 299.631C230.852 302.537 235.535 311.261 235.535 311.261L233.451 317.495L245.738 330.636L258.024 340.329L285.196 356.802H308.618C308.618 356.802 306.737 351.953 320.795 350.021L334.847 348.078L341.404 346.146L350.774 347.12L356.393 348.078L362.951 351.953L375.133 356.802H378.888V395.551L388.242 403.301V410.082H391.992L397.617 421.708C397.617 421.708 399.487 429.463 397.617 437.213L395.748 444.968L392.94 453.676C392.94 453.676 394.81 458.525 393.878 462.4C393.659 463.312 393.492 463.973 393.367 464.515C393.972 463.275 395.373 463.39 398.461 474.03L403.248 490.504C403.248 490.504 404.175 494.379 403.248 498.254C402.305 502.129 399.492 516.67 399.492 516.67L403.659 522.477V526.352H407.925C407.925 526.352 401.367 529.258 407.925 529.258H414.482L421.039 524.415C421.039 524.415 421.039 519.571 429.466 515.696L437.899 511.821L442.581 507.941L447.263 502.133C447.263 502.133 453.826 494.383 457.576 491.482L461.326 488.576C461.326 488.576 463.195 487.607 468.826 480.826C474.445 474.045 474.445 474.045 474.445 474.045V470.17L484.758 455.628L489.435 446.91L495.06 427.29C495.06 427.29 504.419 401.363 504.419 398.462V387.805L510.044 380.055C510.044 380.055 512.852 357.774 513.794 352.925C514.737 348.076 514.732 348.076 514.732 348.076C514.732 348.076 516.602 350.018 520.352 335.482L524.102 320.941V313.191C524.102 313.191 520.352 311.258 524.102 306.41L527.857 301.566V292.847L528.784 279.274L515.675 274.43L507.242 268.623L501.602 264.768L494.112 256.06L488.487 246.258C481.93 243.461 487.55 246.367 481.93 243.461L476.31 240.555C476.31 240.555 464.128 226.024 464.128 223.112V220.206L463.19 213.425C463.19 213.425 466.94 204.706 472.56 213.425C478.169 222.149 474.43 213.425 478.169 222.149C481.924 230.868 473.492 222.149 481.924 230.868C490.357 239.586 492.237 230.758 492.237 230.758C492.237 230.758 494.107 227.748 497.857 230.758C501.607 233.774 506.284 246.263 506.284 246.263H514.721C514.721 246.263 516.591 246.17 519.404 246.263C522.211 246.373 525.023 246.263 525.023 246.263C525.023 246.263 525.023 236.675 528.773 233.774C532.523 230.868 531.586 237.649 532.523 230.868C533.461 224.086 540.023 224.086 532.523 216.326C525.034 208.576 521.284 206.634 520.346 202.753C519.409 198.888 518.476 201.487 515.664 195.341C512.851 189.196 508.174 183.388 502.544 181.435C496.924 179.503 495.055 180.466 492.242 176.591C489.43 172.716 482.883 167.872 482.883 167.872L484.752 163.023H491.31C491.31 163.023 493.18 166.904 495.992 168.841C498.799 170.784 503.482 175.622 503.482 175.622C503.482 175.622 510.044 176.591 515.664 176.591C521.284 176.591 514.726 179.497 521.284 176.591C527.846 173.685 536.076 170.784 536.076 170.784L546.576 169.81L550.331 163.029L555.013 152.377V145.596C555.013 145.596 551.998 129.878 546.367 111.075C587.102 156.668 614.461 214.398 622.389 278.088C611.055 269.531 604.618 270.666 613.686 306.932C618.034 324.292 598.967 317.104 598.967 317.104L588.144 332.479L574.389 349.615V399.287H564.566V415.005L552.775 446.443V478.625H560.634L566.066 492.412C566.066 492.412 566.665 493.48 567.519 495.141C555.342 512.199 541.399 527.887 526.082 542.111L531.592 547.72C593.686 489.928 632.707 407.68 632.707 316.36C632.691 141.92 490.774 0 316.347 0L316.347 0.00171916Z" fill="black"/>
</svg>
